<?xml version="1.0" standalone="no"?>
<!DOCTYPE svg PUBLIC "-//W3C//DTD SVG 20010904//EN"
 "http://www.w3.org/TR/2001/REC-SVG-20010904/DTD/svg10.dtd">
<svg version="1.0" xmlns="http://www.w3.org/2000/svg"
 width="3440.000000pt" height="2792.000000pt" viewBox="0 0 3440.000000 2792.000000"
 preserveAspectRatio="xMidYMid meet">

<g transform="translate(0.000000,2792.000000) scale(0.100000,-0.100000)"
fill="#000000" stroke="none">
<path d="M17469 27905 c-15 -8 -30 -22 -34 -32 -4 -10 -83 -223 -177 -473
-308 -824 -433 -1120 -703 -1665 -177 -356 -233 -484 -279 -635 -128 -423 -82
-794 151 -1215 54 -96 152 -246 363 -555 157 -230 225 -374 250 -533 11 -67
10 -191 -2 -203 -2 -2 -173 57 -379 132 -1458 527 -1543 555 -1742 589 -377
62 -596 80 -992 79 -433 -1 -766 -35 -1177 -120 -606 -124 -1064 -272 -2231
-720 -830 -319 -1114 -420 -1464 -519 -440 -124 -770 -175 -1132 -175 -327 0
-600 42 -907 141 l-91 29 -7 77 c-25 269 -130 489 -323 674 -118 114 -255 192
-430 246 -83 25 -100 27 -283 27 -185 0 -200 -1 -285 -27 -371 -114 -635 -388
-728 -757 -29 -116 -31 -357 -3 -475 53 -229 183 -439 359 -580 96 -77 269
-166 377 -194 41 -10 75 -23 74 -28 -4 -38 -4401 -14966 -4409 -14968 -5 -2
-102 -17 -215 -35 -402 -62 -696 -128 -902 -202 -98 -35 -115 -44 -106 -56 9
-11 9 -16 -4 -23 -24 -13 -41 -65 -34 -103 8 -41 25 -56 288 -260 98 -76 187
-151 199 -167 12 -17 43 -81 70 -142 64 -145 98 -195 205 -301 451 -447 1149
-713 2294 -876 1579 -224 2536 -250 4510 -120 864 57 1288 114 1775 237 529
133 1021 351 1423 630 158 110 226 192 397 481 62 105 109 167 217 289 76 86
144 165 149 176 7 11 9 39 5 65 -6 43 -4 48 31 84 20 21 35 39 32 42 -14 13
-600 126 -869 167 -80 12 -149 25 -153 29 -8 7 -4577 15042 -4573 15047 1 2
36 9 77 17 177 34 345 115 483 235 l45 39 133 -80 c250 -150 399 -216 623
-273 570 -146 1336 -122 2095 66 399 99 685 192 1445 472 943 347 1417 477
2005 548 251 31 787 34 1040 6 626 -69 1179 -229 1703 -494 102 -51 196 -107
240 -142 39 -32 173 -162 297 -289 l226 -232 -13 -82 c-20 -125 -28 -503 -14
-639 16 -146 53 -326 97 -459 46 -138 156 -361 237 -479 l65 -94 -85 -54
c-179 -112 -334 -261 -384 -367 -51 -110 -56 -222 -15 -320 33 -79 125 -154
316 -259 36 -19 80 -50 98 -68 l33 -33 -5 -2255 c-4 -1241 -9 -2301 -11 -2356
-5 -96 -8 -104 -60 -210 -79 -160 -106 -261 -112 -420 -5 -112 -2 -143 16
-215 24 -96 76 -211 126 -281 l34 -47 -46 -49 c-268 -287 -351 -622 -237 -963
35 -106 97 -231 152 -305 l29 -40 -30 -70 c-25 -56 -31 -85 -31 -145 -1 -95
26 -157 124 -285 38 -50 76 -106 84 -125 17 -41 14 -155 -34 -1370 -16 -415
-32 -831 -36 -924 l-6 -169 -83 -81 c-168 -166 -206 -340 -115 -534 33 -71
123 -189 170 -224 l29 -21 -62 -66 c-113 -120 -153 -217 -145 -352 6 -102 46
-185 133 -276 l63 -66 -34 -136 c-114 -451 -110 -879 12 -1231 79 -230 35
-354 -270 -765 -251 -339 -299 -432 -300 -590 -1 -85 1 -96 36 -166 21 -42 56
-97 79 -123 23 -26 38 -51 33 -55 -65 -47 -299 -195 -404 -256 -327 -186 -805
-401 -984 -441 -803 -181 -1398 -405 -1737 -655 -94 -69 -195 -179 -208 -226
-16 -56 -13 -238 5 -313 145 -616 1176 -995 3084 -1134 947 -70 2078 -81 2910
-31 1730 106 2887 428 3300 917 87 104 113 158 118 250 6 100 -25 240 -76 341
-131 263 -602 530 -1322 748 -189 58 -529 146 -705 183 -218 45 -574 181 -874
333 -145 73 -426 237 -477 278 l-27 21 38 50 c115 150 122 342 20 543 -39 79
-110 179 -255 361 -266 336 -310 456 -241 666 121 369 152 764 85 1089 -17 85
-69 246 -96 298 l-19 38 39 43 c81 88 122 191 122 308 0 123 -65 260 -179 377
l-52 53 64 67 c113 118 168 217 189 342 28 173 -62 354 -238 475 l-56 39 6
245 c3 135 8 414 11 620 14 953 43 1418 94 1517 10 21 54 85 96 143 104 140
120 176 120 270 0 65 -4 85 -32 141 -18 36 -41 73 -52 83 -19 17 -18 19 45 94
78 94 137 209 165 322 42 168 12 405 -72 573 -72 142 -182 273 -299 355 -36
25 -67 47 -69 49 -2 1 15 30 38 62 218 312 197 663 -56 932 l-66 70 16 1947
c9 1071 20 2127 23 2346 l7 399 32 36 c18 20 66 54 107 75 184 98 249 158 283
265 23 68 16 177 -16 251 -58 135 -231 291 -464 416 -38 20 -72 39 -74 40 -2
2 17 31 41 66 279 394 448 921 448 1392 l0 112 293 280 c656 626 652 623 1027
767 592 227 1220 290 1910 191 450 -64 819 -160 1785 -464 764 -241 1071 -327
1473 -415 484 -105 925 -121 1468 -55 417 51 901 173 1244 313 l85 35 38 -35
c61 -54 179 -128 262 -162 81 -34 213 -71 252 -71 12 0 23 -5 23 -11 0 -28
-4403 -14975 -4413 -14981 -7 -4 -21 -8 -33 -8 -32 0 -373 -57 -544 -91 -220
-44 -410 -92 -544 -140 -93 -33 -114 -44 -106 -54 9 -10 6 -19 -8 -33 -27 -27
-37 -77 -21 -114 8 -20 79 -82 229 -198 120 -93 231 -185 248 -205 16 -21 47
-78 67 -129 58 -141 113 -222 223 -328 453 -435 1113 -692 2182 -852 271 -40
987 -128 1230 -151 676 -62 1405 -77 2250 -44 479 18 1366 72 1720 105 1120
104 1883 339 2564 792 198 132 260 204 441 510 62 105 109 167 222 295 79 88
146 172 150 185 3 13 3 40 -1 60 -5 33 -2 41 35 78 l40 41 -53 11 c-320 66
-444 90 -692 132 -158 27 -290 50 -291 52 -5 5 -4575 15057 -4575 15068 0 5
12 12 28 16 85 19 197 58 266 94 264 136 455 375 533 668 23 85 26 117 26 257
0 141 -3 172 -27 260 -79 303 -274 541 -551 675 -339 165 -741 135 -1051 -78
-238 -163 -401 -432 -436 -718 -6 -54 -13 -101 -14 -103 -5 -6 -93 -21 -254
-42 -85 -11 -221 -33 -301 -49 -394 -80 -812 -83 -1229 -10 -518 92 -943 231
-1965 643 -1112 448 -1549 585 -2155 672 -330 47 -486 58 -815 58 -334 1 -481
-11 -766 -59 -581 -98 -1261 -354 -1972 -741 -66 -35 -122 -62 -125 -58 -11
11 37 196 74 283 72 169 165 318 401 639 241 330 315 457 378 647 88 265 88
578 0 881 -64 220 -137 390 -366 845 -274 545 -671 1480 -809 1905 -32 98 -49
137 -71 158 -33 31 -78 35 -120 12z m105 -558 c142 -383 486 -1168 736 -1677
264 -537 325 -692 365 -924 20 -115 19 -321 -1 -426 -30 -161 -105 -334 -214
-495 -26 -38 -107 -151 -180 -250 -297 -405 -413 -609 -478 -844 -22 -82 -26
-116 -27 -236 0 -120 3 -151 23 -215 29 -90 69 -172 132 -265 260 -390 419
-807 461 -1214 14 -140 7 -419 -16 -551 -58 -349 -201 -697 -398 -972 -97
-135 -118 -154 -179 -168 -184 -39 -435 -38 -640 3 -129 26 -116 18 -212 142
-331 433 -433 1006 -300 1686 68 350 217 755 409 1109 127 234 171 352 196
529 25 175 -12 374 -106 568 -58 122 -117 216 -286 458 -149 213 -233 350
-300 489 -104 217 -141 361 -141 556 -1 258 59 448 280 895 304 611 444 939
712 1658 57 152 106 277 109 277 3 0 28 -60 55 -133z m-3139 -4182 c312 -30
539 -68 680 -113 166 -54 1853 -658 1864 -668 5 -5 -51 -120 -122 -252 -154
-284 -294 -633 -367 -917 -13 -49 -24 -91 -25 -93 -1 -1 -87 84 -191 189 -216
218 -294 281 -455 366 -602 320 -1307 515 -2039 564 -214 14 -647 6 -850 -16
-610 -66 -1155 -214 -2180 -593 -666 -246 -928 -332 -1327 -432 -444 -113
-774 -154 -1218 -154 -439 0 -728 44 -1009 154 -92 36 -365 183 -425 229 l-24
18 22 32 c33 46 86 166 111 251 13 41 24 77 26 78 1 2 40 -8 86 -22 307 -93
523 -127 863 -133 348 -7 573 17 934 98 425 94 776 211 1726 576 690 265 872
332 1190 439 763 258 1360 384 1980 418 140 7 594 -4 750 -19z m6870 0 c591
-57 1037 -163 1661 -396 117 -43 486 -188 820 -322 607 -244 938 -367 1194
-445 567 -174 976 -243 1425 -243 246 0 401 15 625 61 80 16 233 41 340 55
107 14 196 28 199 31 3 3 15 -35 28 -83 13 -50 49 -140 83 -207 33 -66 58
-121 56 -123 -11 -11 -302 -111 -431 -148 -408 -117 -806 -179 -1230 -191
-599 -18 -1050 75 -2362 490 -1094 346 -1500 445 -2083 508 -156 17 -653 17
-805 0 -372 -41 -715 -127 -1055 -264 -321 -130 -403 -192 -953 -721 -223
-215 -236 -224 -237 -160 0 44 -79 331 -126 458 -63 173 -197 435 -318 624
-91 142 -124 206 -114 216 12 12 331 180 513 270 559 276 1013 440 1461 529
206 41 343 59 629 80 103 8 526 -4 680 -19z m7405 -256 c279 -34 532 -218 651
-472 193 -413 10 -911 -404 -1102 -203 -94 -449 -101 -653 -19 -189 75 -334
205 -428 383 -58 112 -86 212 -93 338 -27 475 330 862 812 882 17 0 69 -4 115
-10z m-22595 -89 c119 -38 238 -105 321 -183 124 -115 192 -225 241 -384 23
-77 26 -105 26 -228 0 -123 -3 -151 -26 -228 -47 -154 -112 -261 -223 -368
-161 -155 -350 -231 -574 -231 -326 -1 -608 176 -746 467 -65 138 -78 197 -78
360 0 157 13 220 69 342 109 237 298 393 560 464 100 27 329 21 430 -11z
m24830 -9592 c1204 -3965 2187 -7210 2184 -7212 -2 -2 -67 4 -144 14 -1045
139 -2455 246 -3955 301 -168 6 -306 12 -308 14 -2 1 0 3186 4 7076 6 5499 10
7067 19 7044 7 -16 997 -3273 2200 -7237z m-2423 176 l-4 -7062 -297 -6
c-1647 -36 -2690 -95 -3665 -206 -143 -17 -260 -29 -261 -28 -1 2 949 3234
2111 7183 1162 3949 2113 7182 2113 7184 1 2 2 2 4 0 1 -2 1 -3182 -1 -7065z
m-20367 -222 c1203 -3962 2185 -7205 2183 -7208 -3 -2 -87 7 -189 21 -974 128
-2565 249 -3819 290 -96 3 -226 8 -287 11 l-113 6 0 2241 c0 5590 14 11922 26
11882 6 -22 996 -3281 2199 -7243z m-2427 76 c-2 -3820 -6 -6949 -9 -6953 -4
-3 -218 -10 -475 -15 -1400 -28 -2597 -98 -3512 -206 -118 -14 -217 -24 -221
-22 -4 2 942 3233 2103 7181 l2111 7178 3 -108 c2 -59 2 -3234 0 -7055z
m11376 5648 c270 -57 542 -55 770 4 l111 29 85 -46 c255 -137 410 -285 410
-392 0 -67 -22 -87 -233 -205 -26 -15 -69 -46 -96 -70 -87 -78 -312 -172 -480
-201 -96 -17 -297 -20 -388 -5 -140 23 -376 111 -390 146 -9 23 -105 91 -224
158 -155 88 -186 123 -179 206 8 92 154 242 353 362 65 38 88 48 112 44 17 -3
83 -17 149 -30z m931 -1408 c-7 -490 -35 -3669 -35 -3944 l0 -191 -88 -41
c-158 -74 -223 -87 -417 -87 -147 0 -182 3 -255 23 -92 25 -206 70 -257 102
l-33 20 0 963 c0 530 3 1544 7 2254 l6 1289 63 -23 c134 -48 256 -67 439 -67
193 0 305 19 467 78 51 19 96 35 101 35 4 1 5 -185 2 -411z m-864 -4442 c287
-77 593 -50 841 75 l60 31 35 -34 c47 -45 108 -135 135 -200 18 -43 22 -72 22
-158 0 -92 -3 -113 -27 -170 -37 -88 -86 -160 -169 -247 -37 -39 -68 -76 -68
-81 0 -13 -110 -57 -205 -81 -237 -62 -498 -51 -719 30 -73 27 -87 37 -136 94
-130 152 -165 242 -165 425 1 115 3 133 33 220 18 52 46 118 63 146 l29 52 89
-38 c48 -21 130 -50 182 -64z m1145 -1081 c90 -89 149 -181 191 -295 23 -66
27 -91 27 -200 1 -106 -3 -135 -22 -192 -33 -96 -107 -195 -203 -272 -73 -60
-92 -69 -203 -105 -439 -140 -831 -134 -1141 19 -55 27 -126 70 -159 95 -51
41 -64 60 -107 149 -60 126 -81 213 -80 336 0 149 43 277 135 404 55 75 120
146 135 146 6 0 45 -14 88 -31 105 -42 256 -76 390 -89 229 -23 496 25 725
130 l63 28 40 -21 c22 -12 76 -58 121 -102z m-1274 -1309 c342 -111 781 -88
1204 66 l87 31 28 -31 c59 -66 52 -95 -61 -247 -43 -57 -89 -127 -103 -157
-65 -138 -89 -449 -107 -1403 -6 -302 -13 -672 -16 -822 l-6 -271 -100 -42
c-304 -126 -648 -131 -975 -13 -50 17 -73 31 -73 42 0 23 17 452 45 1176 38
967 45 1204 34 1259 -13 71 -42 124 -119 224 -69 90 -100 141 -100 165 0 8 9
37 21 65 l21 50 72 -34 c40 -18 107 -44 148 -58z m1225 -3069 c104 -95 125
-195 68 -312 -29 -58 -127 -166 -250 -274 -56 -49 -130 -78 -289 -113 -87 -20
-129 -23 -301 -23 -183 0 -209 3 -305 27 -157 40 -203 61 -307 145 -145 116
-207 208 -208 308 0 48 6 69 27 106 26 44 120 139 138 139 4 0 62 -18 127 -40
192 -64 331 -83 553 -77 112 4 213 12 255 22 98 22 268 80 345 118 74 37 80
36 147 -26z m-1222 -878 c309 -97 669 -87 1000 26 57 19 108 35 114 35 21 0
122 -116 151 -174 74 -147 7 -276 -192 -374 -177 -87 -335 -118 -557 -109
-179 7 -320 33 -504 94 -116 38 -149 54 -205 97 -178 138 -187 262 -31 411
l58 55 53 -21 c29 -12 80 -30 113 -40z m12000 -599 c1508 -57 2864 -160 3930
-301 333 -44 879 -130 859 -135 -23 -7 -677 -97 -929 -128 -1137 -142 -2353
-235 -3602 -276 -665 -22 -2188 -11 -2918 20 -1242 54 -2348 179 -3038 344
-58 14 -104 43 -90 57 12 11 264 64 493 103 922 158 2242 264 3820 306 767 21
1124 23 1475 10z m-22850 -40 c1861 -67 3433 -202 4623 -397 122 -20 221 -37
219 -39 -1 -2 -126 -21 -277 -43 -2093 -303 -4347 -426 -6645 -360 -1446 41
-2674 161 -3465 340 -130 30 -214 66 -187 80 7 4 89 23 182 42 977 204 2582
337 4545 376 567 12 711 12 1005 1z m10786 -65 c413 -142 813 -146 1147 -14
70 27 85 30 93 18 16 -27 68 -204 86 -294 24 -124 24 -439 0 -580 -22 -126
-59 -269 -93 -365 -20 -55 -28 -100 -32 -171 -5 -107 6 -170 45 -268 50 -126
91 -185 366 -539 90 -116 152 -223 173 -300 42 -150 -39 -273 -249 -379 -270
-136 -760 -213 -1170 -184 -450 32 -776 144 -945 324 -147 157 -127 232 157
612 221 296 290 413 336 571 19 65 25 110 25 180 0 83 -5 109 -44 232 -66 205
-80 293 -80 517 -1 200 10 304 50 498 27 129 39 167 52 167 5 0 42 -11 83 -25z
m16905 -605 c-29 -39 -90 -134 -137 -213 -151 -255 -188 -296 -394 -430 -677
-440 -1428 -654 -2614 -747 -1744 -136 -2906 -140 -4031 -14 -1148 128 -1720
240 -2205 431 -341 135 -582 282 -788 482 -103 100 -94 85 -210 331 -20 41
-52 94 -72 118 -20 23 -35 42 -33 42 2 0 71 -14 153 -30 1464 -298 4178 -410
6690 -274 1185 63 2481 191 3425 338 301 47 280 50 216 -34z m-22785 -32 c-26
-35 -90 -133 -141 -218 -158 -267 -187 -298 -410 -442 -610 -394 -1314 -613
-2291 -713 -319 -32 -1252 -93 -1773 -115 -827 -34 -1637 -18 -2301 46 -261
25 -822 92 -1085 130 -1102 158 -1771 409 -2185 820 -91 90 -119 131 -165 249
-36 91 -59 132 -108 194 -27 33 -31 42 -16 38 41 -13 328 -67 504 -96 742
-122 1615 -196 2835 -243 450 -17 2327 -17 2730 0 1624 69 3089 201 4234 382
247 39 230 42 172 -32z m7679 -2478 c320 -213 739 -420 1112 -548 80 -28 238
-71 350 -96 678 -151 1260 -360 1578 -567 105 -68 227 -183 257 -244 25 -48
53 -169 53 -224 0 -62 -72 -152 -205 -256 -382 -298 -1100 -514 -2125 -639
-658 -80 -1206 -110 -2005 -109 -2220 3 -3705 222 -4343 642 -227 149 -332
310 -332 505 l0 84 63 59 c243 227 783 450 1522 630 343 83 337 81 548 170
370 156 714 339 1013 539 l172 114 90 -45 c162 -80 379 -141 632 -177 145 -20
621 -17 780 5 253 36 491 101 650 180 47 23 90 40 95 38 6 -3 48 -30 95 -61z"/>
</g>
</svg>
